<svg width="67" height="67" viewBox="0 0 67 67" fill="none" xmlns="http://www.w3.org/2000/svg">
<g clip-path="url(#clip0_21_811)">
<path d="M33.5 50.25H48.3889L40.9444 63.2778L33.5 50.25Z" fill="#3E721D"/>
<path d="M40.8421 9.43408C48.482 9.43408 61.2157 13.2549 61.2157 29.8077C61.2157 46.3641 61.2157 50.1831 57.3949 50.1831C53.574 50.1831 48.4801 46.3622 40.8403 46.3622C33.2004 46.3622 28.2126 50.1831 24.2857 50.1831C20.0293 50.1831 20.4648 34.9015 20.4648 29.8077C20.4667 13.2549 33.2023 9.43408 40.8421 9.43408Z" fill="#292F33"/>
<path d="M34.1105 50.2834C36.8389 52.2655 39.6268 52.1073 40.9445 52.1073C42.2621 52.1073 45.0278 52.2655 47.7561 50.2834V44.3223H34.1105V50.2834Z" fill="#F7DECE"/>
<path d="M34.0992 46.861C36.0013 49.0105 38.3612 49.5931 40.9258 49.5931C43.4923 49.5931 45.8522 49.0124 47.7561 46.861V41.3967H34.0992V46.861Z" fill="#EEC2AD"/>
<path d="M25.5605 29.2529C25.5605 18.3952 32.402 9.59399 40.8421 9.59399C49.2785 9.59399 56.12 18.3952 56.12 29.2529C56.12 40.1088 49.2785 48.3944 40.8421 48.3944C32.402 48.3944 25.5605 40.1088 25.5605 29.2529Z" fill="#F7DECE"/>
<path d="M40.8421 43.8161C37.8531 43.8161 36.288 42.3384 36.1205 42.169C35.8994 41.928 35.7795 41.6112 35.7855 41.2841C35.7915 40.9571 35.9229 40.6449 36.1526 40.4121C36.3824 40.1793 36.6928 40.0437 37.0197 40.0333C37.3466 40.0229 37.6649 40.1385 37.909 40.3563C37.9741 40.4159 38.9344 41.2701 40.8421 41.2701C42.7739 41.2701 43.7361 40.3898 43.7752 40.3545C44.0194 40.1249 44.3438 40.0002 44.6789 40.0071C45.014 40.0141 45.333 40.1521 45.5674 40.3917C46.0513 40.8923 46.0513 41.6777 45.56 42.169C45.3944 42.3384 43.831 43.8161 40.8421 43.8161Z" fill="#DF1F32"/>
<path d="M21.8215 35.3612C21.7824 33.5001 21.7396 34.9443 21.7396 34.4958C21.7396 28.1271 25.5604 35.4152 25.5604 30.8797C25.5604 26.3404 28.1064 25.8863 30.6524 23.3403C31.9273 22.0654 34.4733 19.5697 34.4733 19.5697C34.4733 19.5697 40.8402 23.4166 45.934 23.4166C51.026 23.4166 56.1218 25.9756 56.1218 31.0695C56.1218 36.1615 59.9426 28.1215 59.9426 34.4884C59.9426 34.9425 59.9017 33.5001 59.8682 35.3612H61.2063C61.2175 31.639 61.2175 31.7804 61.2175 29.4019C61.2175 12.8474 48.4838 9.43408 40.842 9.43408C33.204 9.43408 20.4684 12.7431 20.4684 29.2996C20.4684 30.7754 20.4312 31.639 20.4833 35.3612H21.8215Z" fill="#292F33"/>
<path d="M34.6315 33.2897C34.2142 33.2877 33.8146 33.1209 33.5197 32.8257C33.2248 32.5304 33.0585 32.1306 33.057 31.7133V30.1407C33.057 29.2752 33.7661 28.5662 34.6315 28.5662C35.0488 28.5676 35.4486 28.7339 35.7439 29.0288C36.0391 29.3237 36.2059 29.7234 36.2079 30.1407V31.7133C36.2064 32.1309 36.0398 32.531 35.7445 32.8263C35.4492 33.1216 35.0491 33.2882 34.6315 33.2897ZM47.2219 33.2897C46.8046 33.2877 46.405 33.1209 46.1101 32.8257C45.8152 32.5304 45.6489 32.1306 45.6474 31.7133V30.1407C45.6474 29.2752 46.3565 28.5662 47.2219 28.5662C48.0873 28.5662 48.7964 29.2752 48.7964 30.1407V31.7133C48.795 32.1306 48.6287 32.5304 48.3338 32.8257C48.0389 33.1209 47.6392 33.2877 47.2219 33.2897Z" fill="#662113"/>
<path d="M42.5003 38.1529H39.355C39.1464 38.1524 38.9464 38.0693 38.7989 37.9217C38.6513 37.7742 38.5682 37.5742 38.5677 37.3656V37.0809C38.5677 36.6472 38.9195 36.2917 39.355 36.2917H42.5003C42.9339 36.2917 43.2894 36.6454 43.2894 37.0809V37.3656C43.2884 37.5744 43.2049 37.7744 43.0571 37.9218C42.9092 38.0693 42.7091 38.1524 42.5003 38.1529Z" fill="#C1694F"/>
<path d="M28.7431 29.6586C28.7431 32.3534 27.377 34.5384 25.6927 34.5384C24.0084 34.5384 22.6423 32.3534 22.6423 29.6586C22.6423 26.9637 24.0084 24.7769 25.6927 24.7769C27.377 24.775 28.7431 26.9618 28.7431 29.6586ZM59.2448 29.6586C59.2448 32.3534 57.8806 34.5384 56.1944 34.5384C54.5101 34.5384 53.1441 32.3534 53.1441 29.6586C53.1441 26.9637 54.5083 24.7769 56.1944 24.7769C57.8806 24.775 59.2448 26.9618 59.2448 29.6586Z" fill="#F7DECE"/>
<path d="M57.6944 51.3201C55.9145 50.6248 54.022 50.2621 52.1111 50.25H29.7778C27.8669 50.2621 25.9744 50.6248 24.1944 51.3201C20.087 52.9114 16.75 56.1851 16.75 60.4861V67H65.1389V60.4861C65.1389 56.1851 61.8038 52.9114 57.6944 51.3201Z" fill="#77B255"/>
<path d="M52.1111 50.25V64.2083H29.7778V50.25C27.8669 50.2621 25.9744 50.6248 24.1945 51.3201V67H57.6945V51.3201C55.9145 50.6248 54.022 50.2621 52.1111 50.25Z" fill="#226699"/>
<path d="M13.0278 59.0903C13.0278 58.4733 12.7827 57.8816 12.3464 57.4453C11.9101 57.009 11.3184 56.7639 10.7014 56.7639C10.0844 56.7639 9.49267 57.009 9.05638 57.4453C8.6201 57.8816 8.375 58.4733 8.375 59.0903V67H13.0278V59.0903Z" fill="#C1694F"/>
<path d="M20.0069 25.125C19.6367 25.125 19.2817 25.272 19.0199 25.5338C18.7582 25.7956 18.6111 26.1506 18.6111 26.5208V42.3402L18.6148 42.3588C18.6091 44.2105 17.9535 46.0013 16.7623 47.419C15.5712 48.8367 13.9202 49.7911 12.0972 50.116V26.5208C12.0972 26.1506 11.9502 25.7956 11.6884 25.5338C11.4266 25.272 11.0716 25.125 10.7014 25.125C10.3312 25.125 9.97616 25.272 9.71439 25.5338C9.45262 25.7956 9.30556 26.1506 9.30556 26.5208V50.1141C7.48246 49.7896 5.83121 48.8352 4.64001 47.4175C3.4488 45.9998 2.79331 44.2087 2.78794 42.357L2.79167 42.3384V26.5189C2.79154 26.3356 2.75532 26.1541 2.68506 25.9848C2.6148 25.8155 2.51188 25.6617 2.38218 25.5322C2.25248 25.4027 2.09853 25.3 1.92914 25.2299C1.75974 25.1599 1.57821 25.1239 1.3949 25.124C1.2116 25.1241 1.03012 25.1604 0.860812 25.2306C0.691508 25.3009 0.537701 25.4038 0.408172 25.5335C0.278644 25.6632 0.17593 25.8172 0.105896 25.9866C0.0358614 26.156 -0.000121892 26.3375 3.10213e-07 26.5208V42.3402C0.0014102 44.9353 0.946084 47.4414 2.65805 49.3917C4.37002 51.3419 6.73255 52.6034 9.30556 52.9411V57.6944C9.30556 58.0646 9.45262 58.4196 9.71439 58.6814C9.97616 58.9432 10.3312 59.0902 10.7014 59.0902C11.0716 59.0902 11.4266 58.9432 11.6884 58.6814C11.9502 58.4196 12.0972 58.0646 12.0972 57.6944V52.9411C17.3456 52.2562 21.4028 47.7765 21.4028 42.3402V26.5208C21.4028 26.1506 21.2557 25.7956 20.9939 25.5338C20.7322 25.272 20.3771 25.125 20.0069 25.125Z" fill="#66757F"/>
<path d="M55.8333 16.3778C55.8333 18.8344 50.0788 20.4722 40.9444 20.4722C31.8082 20.4722 26.0555 18.8344 26.0555 16.3778C26.0555 9.77642 33.5 0 35.9808 0C38.4636 0 40.1181 3.27556 40.9444 3.27556C41.7708 3.27556 43.4253 0 45.908 0C48.3889 0 55.8333 9.77642 55.8333 16.3778Z" fill="#C1694F"/>
<path d="M67 14.8889C67 17.9727 60.4861 26.0555 40.9445 26.0555C21.4028 26.0555 14.8889 17.9727 14.8889 14.8889C14.8889 11.805 27.5817 13.0278 40.9445 13.0278C54.3072 13.0278 67 11.805 67 14.8889Z" fill="#C1694F"/>
<path d="M55.8333 16.3778C55.8333 18.8345 50.0788 20.4723 40.9444 20.4723C31.8082 20.4723 26.0555 18.8345 26.0555 16.3778C26.0555 15.3244 26.2454 14.191 26.5748 13.0278C31.0191 16.7501 50.8697 16.7501 55.3159 13.0353C55.6416 14.1947 55.8333 15.3263 55.8333 16.3778Z" fill="#292F33"/>
</g>
<defs>
<clipPath id="clip0_21_811">
<rect width="67" height="67" fill="white"/>
</clipPath>
</defs>
</svg>
